<svg width="204" height="21" viewBox="0 0 204 21" fill="none" xmlns="http://www.w3.org/2000/svg">
<g clip-path="url(#clip0_46_678)">
<path d="M77.2656 2.30869L73.8427 17.1805H81.7509L80.9529 20.6648H68.4535L72.6793 2.30869H77.2656Z" fill="#1D3E7B"/>
<path d="M97.5146 14.5083H87.8516C87.7392 14.8376 87.6477 15.1735 87.5776 15.5139C87.4142 16.4015 87.5359 17.0672 87.943 17.511C88.1558 17.7347 88.4157 17.9102 88.7047 18.0252C88.9936 18.1401 89.3046 18.1919 89.616 18.1767C90.2633 18.2169 90.91 18.0893 91.4914 17.8067C92.0727 17.5242 92.5682 17.0966 92.9283 16.5668H96.5772C95.8338 17.8847 94.7535 18.9896 93.4427 19.7725C92.0596 20.5998 90.4661 21.0254 88.8468 21C86.8757 21 85.3838 20.4177 84.371 19.2531C83.3583 18.0886 83.0249 16.5715 83.3711 14.7019C83.7904 12.5562 84.9112 10.6036 86.5632 9.14027C87.3805 8.3523 88.3483 7.73062 89.4109 7.31093C90.4735 6.89125 91.61 6.68182 92.7553 6.69468C94.7616 6.69468 96.2038 7.28483 97.082 8.46514C97.9601 9.64544 98.2486 11.1137 97.9473 12.87C97.836 13.424 97.6915 13.971 97.5146 14.5083ZM88.5728 12.2468H93.9715C94.068 11.9807 94.1436 11.7076 94.1975 11.4301C94.2779 11.147 94.2867 10.8489 94.223 10.5617C94.1593 10.2745 94.0251 10.007 93.8321 9.78236C93.6325 9.58695 93.3932 9.43507 93.1298 9.33664C92.8663 9.2382 92.5847 9.19542 92.3034 9.21109C90.672 9.21109 89.4285 10.223 88.5728 12.2468Z" fill="#1D3E7B"/>
<path d="M109.658 10.1223H106.106L104.836 15.6084C104.734 15.9926 104.662 16.3841 104.62 16.7792C104.588 17.5157 105.218 17.884 106.509 17.884C107.034 17.8901 107.558 17.8537 108.077 17.7754L107.375 20.7734C106.387 20.9207 105.389 20.9964 104.389 21C101.418 21 99.9841 19.8984 100.087 17.6951C100.2 16.6592 100.407 15.6353 100.707 14.6358L101.918 10.1223H99.6107L100.332 6.99213H102.832L104.024 3.21515L107.817 3.12073L106.913 6.98269H110.379L109.658 10.1223Z" fill="#1D3E7B"/>
<path d="M126.09 11.1846H122.725C122.51 9.92559 121.558 9.29609 119.869 9.29609C119.37 9.27723 118.879 9.41988 118.47 9.70212C118.307 9.79981 118.169 9.93339 118.067 10.0923C117.966 10.2513 117.903 10.4312 117.884 10.618C117.862 10.7844 117.893 10.9533 117.971 11.1024C118.049 11.2516 118.171 11.374 118.321 11.4537C118.948 11.7091 119.611 11.8684 120.288 11.9258C122.05 12.1839 123.35 12.6246 124.186 13.2478C125.023 13.871 125.408 14.8199 125.345 16.1041C125.306 16.7843 125.114 17.4476 124.781 18.0454C124.448 18.6433 123.984 19.1607 123.422 19.56C122.22 20.5043 120.598 20.9764 118.557 20.9764C117.019 21.0145 115.497 20.6668 114.134 19.9661C113.541 19.6643 113.035 19.2197 112.665 18.674C112.294 18.1282 112.07 17.4991 112.014 16.8453H115.725C116.105 18.1295 117.168 18.3939 118.874 18.3939C119.516 18.4337 120.155 18.2858 120.711 17.969C120.894 17.8656 121.049 17.7209 121.163 17.5468C121.278 17.3727 121.348 17.1743 121.369 16.9681C121.389 16.8005 121.359 16.6308 121.282 16.4799C121.205 16.329 121.085 16.2033 120.937 16.1183C120.304 15.8482 119.633 15.6762 118.946 15.6084C116.821 15.2779 115.426 14.7491 114.759 14.022C114.434 13.6733 114.184 13.2634 114.024 12.8171C113.865 12.3707 113.799 11.8973 113.831 11.4254C113.855 10.7681 114.023 10.1236 114.325 9.53665C114.627 8.94969 115.056 8.43426 115.581 8.02608C116.668 7.1259 118.153 6.67581 120.038 6.67581C123.552 6.6947 126.09 8.58791 126.09 11.1846Z" fill="#1D3E7B"/>
<path d="M155.281 6.65221C157.223 6.65221 158.735 7.24236 159.815 8.42267C160.895 9.60298 161.331 11.1468 161.122 13.0542C160.913 15.1849 159.922 17.1682 158.334 18.6347C157.584 19.377 156.69 19.9641 155.705 20.3615C154.72 20.7588 153.663 20.9583 152.599 20.9481C151.764 20.9887 150.93 20.854 150.152 20.5527C149.374 20.2515 148.671 19.7907 148.089 19.2012C147.537 18.6149 147.126 17.9142 146.886 17.151C146.647 16.3878 146.585 15.5815 146.705 14.7916C146.894 12.5896 147.876 10.5259 149.474 8.97033C150.232 8.21897 151.138 7.62622 152.136 7.22782C153.134 6.82942 154.204 6.63362 155.281 6.65221ZM154.978 9.30554C153.743 9.30554 152.815 9.99956 152.195 11.397C151.578 12.7654 151.183 14.2196 151.022 15.7075C150.833 17.4355 151.49 18.2995 152.993 18.2995C154.214 18.2995 155.137 17.5394 155.752 16.0238C156.316 14.7034 156.693 13.3135 156.872 11.8928C157.07 10.1695 156.435 9.30554 154.988 9.30554H154.978Z" fill="#1D3E7B"/>
<path d="M173.415 10.9391C172.27 10.765 171.099 10.9294 170.05 11.4112C169.477 11.6937 168.972 12.0929 168.569 12.5821C168.099 13.1472 167.729 13.7855 167.473 14.4706C167.213 15.174 167.064 16.0191 166.656 17.5913L165.858 20.5184H161.531L165.228 7.08185H169.223L168.396 10.1695C168.748 9.52574 169.173 8.92377 169.665 8.37546C171.458 6.84107 173.54 7.19516 174.237 7.19516L173.415 10.9391Z" fill="#1D3E7B"/>
<path d="M181.924 20.6648C181.924 20.2635 181.924 19.9802 181.924 19.8197C181.95 19.526 181.995 19.2342 182.059 18.9463C182.107 18.7008 182.14 18.4742 182.16 18.3136C181.141 20.1014 179.495 20.9969 177.222 21C176.06 21.0575 174.919 20.6795 174.03 19.9425C173.644 19.6167 173.34 19.2066 173.144 18.7451C172.948 18.2835 172.865 17.7833 172.901 17.2844C172.968 15.7988 173.755 14.6059 175.261 13.7057C176.767 12.8055 179.442 12.2752 183.285 12.1147C183.467 11.7296 183.576 11.3153 183.607 10.8919C183.627 10.6704 183.595 10.4473 183.511 10.2406C183.428 10.0339 183.296 9.84945 183.126 9.70212C182.729 9.39062 182.229 9.23423 181.722 9.26305C181.05 9.23111 180.385 9.41587 179.83 9.7892C179.274 10.1625 178.859 10.7039 178.645 11.3309H174.737C175.915 8.5407 177.66 6.74191 182.189 6.74191C184.112 6.74191 185.554 7.10545 186.515 7.83252C186.972 8.15652 187.337 8.58995 187.575 9.09157C187.813 9.59319 187.917 10.1463 187.876 10.6983C187.755 11.6938 187.57 12.6809 187.323 13.6538L186.51 17.1664C186.295 18.0175 186.151 18.8843 186.078 19.7583C186.064 20.0592 186.073 20.3607 186.107 20.6601L181.924 20.6648ZM182.886 14.0551C179.36 14.1747 177.551 15.1048 177.458 16.8453C177.44 17.0598 177.467 17.2755 177.538 17.4793C177.608 17.6831 177.72 17.8707 177.867 18.0304C178.024 18.1908 178.214 18.316 178.425 18.3975C178.635 18.479 178.862 18.5148 179.088 18.5025C179.53 18.4899 179.965 18.3839 180.363 18.1916C180.76 17.9994 181.111 17.7254 181.39 17.3883C182.193 16.4256 182.715 15.2671 182.9 14.0362L182.886 14.0551Z" fill="#1D3E7B"/>
<path d="M195.419 6.99214L192.27 20.6837H187.765L190.914 6.99214H195.419ZM196.548 2.0679L195.664 5.95347H191.159L192.053 2.0679H196.548Z" fill="#1D3E7B"/>
<path d="M204 2.30869L199.779 20.6648H195.452L199.673 2.30869H204Z" fill="#1D3E7B"/>
<path d="M56.4348 14.7397H14.706L8.05731 21H50.8966L56.4348 14.7397Z" fill="#1F335D"/>
<path d="M49.6467 7.36984H6.64392L0 13.6302H44.1085L49.6467 7.36984Z" fill="#037CB4"/>
<path d="M66.6123 0H19.7924L13.1484 6.26506H61.0741L66.6123 0Z" fill="#72A82D"/>
<path d="M115.629 5.47189C115.299 6.50485 114.642 7.4077 113.754 8.04967C112.826 8.73425 111.052 8.97031 111.052 8.97031L111.394 7.90331C111.872 7.81497 112.334 7.65578 112.764 7.43119C113.289 7.14456 113.683 6.67166 113.865 6.10925H111.942L113.067 3.00269H116.509L115.629 5.47189Z" fill="#1D3E7B"/>
<path d="M150.176 2.58724H144.508L136.421 9.72573L138.522 2.30869H134.095L128.907 20.6648H133.325L134.758 15.5989L137.902 12.9456L141.364 20.6648H146.123L141.171 10.1884L150.176 2.58724Z" fill="#1D3E7B"/>
</g>
<defs>
<clipPath id="clip0_46_678">
<rect width="204" height="21" fill="white"/>
</clipPath>
</defs>
</svg>
