<svg xmlns="http://www.w3.org/2000/svg" viewBox="0 0 180.19 127.17"><defs><style>.cls-1{fill:#1d1d1b;}.cls-2{fill:#f07d19;}.cls-3{fill:#ef7d17;}.cls-4{fill:#fff;}</style></defs><g id="Layer_2" data-name="Layer 2"><g id="Layer_1-2" data-name="Layer 1"><path class="cls-1" d="M179.65,98.22l-31.21-5.91A33.29,33.29,0,0,0,149.81,83c0-15.45-6-25.71-6-37.86a54.2,54.2,0,0,1,1.73-13.33l-27,18.48H61.73l-27-18.48a54.49,54.49,0,0,1,1.72,13.33c0,12.15-6,22.41-6,37.86a33.67,33.67,0,0,0,1.37,9.29L.55,98.22A.67.67,0,0,0,.7,99.54L34,98.21a39.1,39.1,0,0,0,2,3.74L6.11,112.47a.67.67,0,0,0,.36,1.29L39.69,107c.56.68,1.14,1.34,1.75,2L14.77,124.64a.67.67,0,0,0,.59,1.2l30.53-12.63c9.8,8.16,24.39,14,44.21,14s34.4-5.8,44.2-14l30.53,12.63a.67.67,0,0,0,.6-1.2L138.75,109c.61-.66,1.19-1.32,1.75-2l33.22,6.74a.67.67,0,0,0,.36-1.29l-30-10.52a39.1,39.1,0,0,0,2-3.74l33.33,1.33A.67.67,0,0,0,179.65,98.22Z"/><path class="cls-2" d="M90.1,11.07c-10.06,0-19.65,5.39-19.65,16.24V40.74h39.29V27.31C109.74,16.46,100.15,11.07,90.1,11.07Z"/><path class="cls-1" d="M110.74,41.74H69.45V27.31c0-11.85,10.7-17.24,20.65-17.24s20.64,5.39,20.64,17.24Zm-39.29-2h37.29V27.31c0-10.53-9.36-15.24-18.64-15.24S71.45,16.78,71.45,27.31Z"/><circle class="cls-2" cx="90.1" cy="7.54" r="3.52"/><path class="cls-1" d="M90.1,12.07a4.53,4.53,0,1,1,4.52-4.53A4.53,4.53,0,0,1,90.1,12.07Zm0-7a2.53,2.53,0,1,0,2.52,2.52A2.53,2.53,0,0,0,90.1,5Z"/><path class="cls-3" d="M62.06,23h-.12a1.75,1.75,0,0,1-1.63-1.86C60.84,13,65.4,6.65,72.22,4.66A1.75,1.75,0,1,1,73.2,8c-5.37,1.57-9,6.69-9.4,13.36A1.75,1.75,0,0,1,62.06,23Z"/><path class="cls-3" d="M54.59,17l-.22,0A1.75,1.75,0,0,1,52.85,15C53.65,8.55,58.11,2.43,63.7.13A1.75,1.75,0,0,1,65,3.37C60.56,5.21,57,10.18,56.32,15.45A1.75,1.75,0,0,1,54.59,17Z"/><path class="cls-3" d="M118.13,23a1.75,1.75,0,0,1-1.74-1.63C116,14.71,112.36,9.59,107,8a1.75,1.75,0,0,1,1-3.36c6.82,2,11.39,8.31,11.91,16.49A1.74,1.74,0,0,1,118.25,23Z"/><path class="cls-3" d="M125.6,17a1.75,1.75,0,0,1-1.73-1.54c-.65-5.27-4.24-10.24-8.71-12.08A1.75,1.75,0,0,1,116.49.13c5.59,2.3,10.05,8.42,10.85,14.89A1.75,1.75,0,0,1,125.82,17Z"/><circle class="cls-4" cx="59.71" cy="68.22" r="10.42"/><ellipse class="cls-1" cx="59.65" cy="68.22" rx="4.51" ry="10.42"/><circle class="cls-4" cx="119.84" cy="68.22" r="10.42"/><ellipse class="cls-1" cx="119.79" cy="68.22" rx="4.51" ry="10.42"/><ellipse class="cls-4" cx="90.1" cy="100.5" rx="38.93" ry="21"/><path class="cls-1" d="M78.39,114.16a13.27,13.27,0,0,1-12-7.69,1.5,1.5,0,0,1,2.73-1.26A10.21,10.21,0,0,0,88.6,101V92.17a1.5,1.5,0,1,1,3,0V101A13.23,13.23,0,0,1,78.39,114.16Z"/><circle class="cls-1" cx="75.43" cy="95.64" r="1.94"/><circle class="cls-1" cx="68.28" cy="92.17" r="1.94"/><circle class="cls-1" cx="63.96" cy="98.55" r="1.94"/><path class="cls-1" d="M101.81,114.16A13.22,13.22,0,0,1,88.6,101V92.17a1.5,1.5,0,1,1,3,0V101a10.21,10.21,0,0,0,19.49,4.26,1.5,1.5,0,0,1,2.72,1.26A13.25,13.25,0,0,1,101.81,114.16Z"/><circle class="cls-1" cx="104.76" cy="95.64" r="1.94"/><circle class="cls-1" cx="111.92" cy="92.17" r="1.94"/><circle class="cls-1" cx="116.23" cy="98.55" r="1.94"/><path class="cls-1" d="M98.41,82.22a70.31,70.31,0,0,0-8.31-.56,70.34,70.34,0,0,0-8.32.56c-1.85.23-2.43,2.22-1.51,3.84a42.62,42.62,0,0,0,8,9.53,2.48,2.48,0,0,0,3.59,0,42.62,42.62,0,0,0,8-9.53C100.84,84.44,100.27,82.45,98.41,82.22Z"/><path class="cls-2" d="M72.7,32.72c-4.72,0-8.54,3.49-8.54,7.46v9.2H81.24v-9.2C81.24,36.21,77.41,32.72,72.7,32.72Z"/><path class="cls-1" d="M82.24,50.38H63.16V40.18c0-4.58,4.37-8.46,9.54-8.46s9.54,3.88,9.54,8.46Zm-17.08-2H80.24v-8.2c0-3.5-3.46-6.46-7.54-6.46s-7.54,3-7.54,6.46Z"/><path class="cls-2" d="M89.77,32.72c-4.71,0-8.53,3.49-8.53,7.46v9.2H98.31v-9.2C98.31,36.21,94.49,32.72,89.77,32.72Z"/><path class="cls-1" d="M99.31,50.38H80.24V40.18c0-4.58,4.36-8.46,9.53-8.46s9.54,3.88,9.54,8.46Zm-17.07-2H97.31v-8.2c0-3.5-3.45-6.46-7.54-6.46s-7.53,3-7.53,6.46Z"/><path class="cls-2" d="M106.85,32.72c-4.71,0-8.54,3.49-8.54,7.46v9.2h17.08v-9.2C115.39,36.21,111.57,32.72,106.85,32.72Z"/><path class="cls-1" d="M116.39,50.38H97.31V40.18c0-4.58,4.37-8.46,9.54-8.46s9.54,3.88,9.54,8.46Zm-17.08-2h15.08v-8.2c0-3.5-3.45-6.46-7.54-6.46s-7.54,3-7.54,6.46Z"/></g></g></svg>