<svg xmlns="http://www.w3.org/2000/svg" viewBox="0 0 151.88 80.36"><defs><style>.cls-1{fill:#231f20;}.cls-2{fill:#fff;}.cls-3{fill:#1d1d1b;}.cls-4{fill:none;stroke:#1d1d1b;stroke-linecap:round;stroke-miterlimit:10;stroke-width:3px;}</style></defs><g id="Layer_2" data-name="Layer 2"><g id="Layer_1-2" data-name="Layer 1"><path class="cls-1" d="M151.42,56l-26.31-5a27.88,27.88,0,0,0,1.16-7.83c0-13-5.08-21.67-5.08-31.92A45.92,45.92,0,0,1,122.64,0L99.85,15.57H52L29.23,0a45.63,45.63,0,0,1,1.46,11.23c0,10.25-5.08,18.9-5.08,31.92A28.23,28.23,0,0,0,26.76,51L.46,56a.57.57,0,0,0,.13,1.12L28.67,56a34.89,34.89,0,0,0,1.72,3.16L5.15,68a.57.57,0,0,0,.3,1.09l28-5.68c.47.57.95,1.13,1.47,1.68L12.44,78.23a.57.57,0,0,0,.51,1L38.68,68.59c8.26,6.88,20.55,11.77,37.26,11.77s29-4.89,37.25-11.77l25.74,10.65a.56.56,0,0,0,.5-1L117,65.06q.76-.82,1.47-1.68l28,5.68a.57.57,0,0,0,.3-1.09l-25.23-8.86A34.77,34.77,0,0,0,123.2,56l28.09,1.13A.57.57,0,0,0,151.42,56Z"/><circle class="cls-2" cx="50.33" cy="30.68" r="8.78"/><ellipse class="cls-3" cx="50.28" cy="30.68" rx="3.8" ry="8.78"/><circle class="cls-2" cx="101.01" cy="30.68" r="8.78"/><ellipse class="cls-3" cx="100.96" cy="30.68" rx="3.8" ry="8.78"/><ellipse class="cls-2" cx="75.94" cy="57.88" rx="32.81" ry="17.7"/><path class="cls-4" d="M75.94,50.86v7.4a9.87,9.87,0,0,1-9.87,9.87h0a9.87,9.87,0,0,1-9-5.75"/><circle class="cls-3" cx="63.58" cy="53.78" r="1.64"/><circle class="cls-3" cx="57.55" cy="50.86" r="1.64"/><circle class="cls-3" cx="53.91" cy="56.24" r="1.64"/><path class="cls-4" d="M75.94,50.86v7.4a9.87,9.87,0,0,0,9.87,9.87h0a9.87,9.87,0,0,0,9-5.75"/><circle class="cls-3" cx="88.3" cy="53.78" r="1.64"/><circle class="cls-3" cx="94.33" cy="50.86" r="1.64"/><circle class="cls-3" cx="97.97" cy="56.24" r="1.64"/><path class="cls-3" d="M83,42.47a60.34,60.34,0,0,0-7-.47,60.34,60.34,0,0,0-7,.47c-1.56.19-2.05,1.87-1.27,3.24a35.66,35.66,0,0,0,6.77,8,2.08,2.08,0,0,0,3,0,35.66,35.66,0,0,0,6.77-8C85,44.34,84.51,42.66,83,42.47Z"/></g></g></svg>