<svg width="33" height="32" viewBox="0 0 33 32" fill="none" xmlns="http://www.w3.org/2000/svg">
<path d="M23.2623 2.77971e-07H9.73543C7.28604 2.77971e-07 4.93698 0.973016 3.205 2.705C1.47302 4.43698 0.5 6.78604 0.5 9.23543V22.7623C0.499703 23.9753 0.738365 25.1765 1.20236 26.2972C1.66635 27.418 2.34658 28.4364 3.20419 29.2942C4.06181 30.152 5.08002 30.8325 6.20066 31.2968C7.3213 31.761 8.52243 32 9.73543 32H23.2623C24.4754 32 25.6766 31.7611 26.7974 31.2968C27.9182 30.8326 28.9365 30.1521 29.7943 29.2943C30.6521 28.4365 31.3326 27.4182 31.7968 26.2974C32.2611 25.1766 32.5 23.9754 32.5 22.7623V9.23543C32.5 8.02243 32.261 6.8213 31.7968 5.70066C31.3325 4.58002 30.652 3.56181 29.7942 2.70419C28.9364 1.84658 27.918 1.16635 26.7972 0.702355C25.6765 0.238365 24.4753 -0.000297319 23.2623 2.77971e-07V2.77971e-07ZM29.5522 23.0002C29.5525 23.8055 29.3941 24.6029 29.0861 25.3469C28.7781 26.0909 28.3264 26.7669 27.757 27.3363C27.1876 27.9057 26.5116 28.3574 25.7676 28.6654C25.0236 28.9734 24.2262 29.1318 23.4209 29.1315H9.57683C8.77157 29.1318 7.97415 28.9734 7.23014 28.6654C6.48612 28.3574 5.8101 27.9057 5.2407 27.3363C4.67129 26.7669 4.21968 26.0909 3.91166 25.3469C3.60364 24.6029 3.44525 23.8055 3.44555 23.0002V9.15839C3.44525 8.35314 3.60364 7.55572 3.91166 6.81171C4.21968 6.06769 4.67129 5.39167 5.2407 4.82226C5.8101 4.25286 6.48612 3.80125 7.23014 3.49323C7.97415 3.18521 8.77157 3.02682 9.57683 3.02712H23.4209C24.2262 3.02682 25.0236 3.18521 25.7676 3.49323C26.5116 3.80125 27.1876 4.25286 27.757 4.82226C28.3264 5.39167 28.7781 6.06769 29.0861 6.81171C29.3941 7.55572 29.5525 8.35314 29.5522 9.15839V23.0002Z" fill="black"/>
<path d="M16.4988 7.77612C14.8566 7.77612 13.2514 8.26298 11.8859 9.17516C10.5204 10.0873 9.45608 11.3839 8.82735 12.9009C8.19863 14.4179 8.03378 16.0872 8.35365 17.6979C8.67352 19.3085 9.46374 20.7882 10.6244 21.9499C11.7851 23.1115 13.2641 23.9029 14.8745 24.2241C16.4849 24.5453 18.1544 24.3818 19.6719 23.7543C21.1894 23.1268 22.4868 22.0635 23.4001 20.6988C24.3134 19.3341 24.8016 17.7292 24.803 16.0871C24.8038 14.996 24.5897 13.9154 24.1728 12.9071C23.7559 11.8988 23.1443 10.9826 22.3731 10.2108C21.6019 9.43893 20.6862 8.82664 19.6782 8.40889C18.6703 7.99114 17.5899 7.77612 16.4988 7.77612V7.77612ZM16.4988 21.4616C15.4336 21.4616 14.3924 21.1456 13.5069 20.5537C12.6214 19.9617 11.9313 19.1204 11.5241 18.1361C11.1169 17.1519 11.0109 16.069 11.2193 15.0244C11.4278 13.9799 11.9414 13.0206 12.6952 12.2681C13.449 11.5155 14.4091 11.0035 15.4541 10.7968C16.499 10.5901 17.5817 10.698 18.5653 11.1069C19.5488 11.5157 20.389 12.2072 20.9794 13.0937C21.5699 13.9802 21.8841 15.022 21.8823 16.0871C21.8799 17.5133 21.3117 18.8803 20.3023 19.888C19.293 20.8957 17.925 21.4616 16.4988 21.4616V21.4616Z" fill="black"/>
<path d="M25.0795 9.39637C26.1482 9.39637 27.0145 8.53004 27.0145 7.46137C27.0145 6.3927 26.1482 5.52637 25.0795 5.52637C24.0109 5.52637 23.1445 6.3927 23.1445 7.46137C23.1445 8.53004 24.0109 9.39637 25.0795 9.39637Z" fill="black"/>
</svg>
