<svg xmlns="http://www.w3.org/2000/svg" viewBox="0 0 45.18 40.23"><defs><style>.cls-1{fill:#f9a13a;stroke:#1d1d1b;stroke-miterlimit:10;stroke-width:2px;}</style></defs><g id="Layer_2" data-name="Layer 2"><g id="Layer_1-2" data-name="Layer 1"><path class="cls-1" d="M22.86,6.94C14.39,6.94,6.3,11.48,6.3,20.63V32H39.42V20.63C39.42,11.48,31.34,6.94,22.86,6.94Z"/><circle class="cls-1" cx="22.86" cy="3.97" r="2.97"/><path class="cls-1" d="M8.2,25.19c-4,0-7.2,2.94-7.2,6.29v7.75H15.39V31.48C15.39,28.13,12.17,25.19,8.2,25.19Z"/><path class="cls-1" d="M22.59,25.19c-4,0-7.2,2.94-7.2,6.29v7.75h14.4V31.48C29.79,28.13,26.57,25.19,22.59,25.19Z"/><path class="cls-1" d="M37,25.19c-4,0-7.19,2.94-7.19,6.29v7.75H44.18V31.48C44.18,28.13,41,25.19,37,25.19Z"/></g></g></svg>