<svg xmlns="http://www.w3.org/2000/svg" viewBox="0 0 434.73 127.17"><defs><style>.cls-1{fill:#1d1d1b;}.cls-2{fill:#f07d19;}.cls-3{fill:#ef7d17;}.cls-4{fill:#fff;}.cls-5{fill:#26b9d2;}</style></defs><g id="Layer_2" data-name="Layer 2"><g id="Layer_1-2" data-name="Layer 1"><path class="cls-1" d="M179.65,98.22l-31.21-5.91A33.29,33.29,0,0,0,149.81,83c0-15.45-6-25.71-6-37.86a54.2,54.2,0,0,1,1.73-13.33l-27,18.48H61.73l-27-18.48a54.49,54.49,0,0,1,1.72,13.33c0,12.15-6,22.41-6,37.86a33.67,33.67,0,0,0,1.37,9.29L.55,98.22A.67.67,0,0,0,.7,99.54L34,98.21a39.1,39.1,0,0,0,2,3.74L6.11,112.48a.67.67,0,0,0,.36,1.28L39.69,107c.56.68,1.14,1.34,1.75,2L14.77,124.64a.67.67,0,0,0,.59,1.2l30.53-12.63c9.8,8.16,24.39,14,44.21,14s34.4-5.8,44.2-14l30.53,12.63a.67.67,0,0,0,.6-1.2L138.75,109c.61-.66,1.19-1.32,1.75-2l33.22,6.74a.67.67,0,0,0,.36-1.28l-30-10.53a39.1,39.1,0,0,0,2-3.74l33.33,1.33A.67.67,0,0,0,179.65,98.22Z"/><path class="cls-2" d="M90.1,11.07c-10.06,0-19.65,5.39-19.65,16.24V40.74h39.29V27.31C109.74,16.46,100.15,11.07,90.1,11.07Z"/><path class="cls-1" d="M110.74,41.74H69.45V27.31c0-11.85,10.7-17.24,20.65-17.24s20.64,5.39,20.64,17.24Zm-39.29-2h37.29V27.31c0-10.53-9.36-15.24-18.64-15.24S71.45,16.78,71.45,27.31Z"/><circle class="cls-2" cx="90.1" cy="7.54" r="3.52"/><path class="cls-1" d="M90.1,12.07a4.53,4.53,0,1,1,4.52-4.53A4.52,4.52,0,0,1,90.1,12.07Zm0-7a2.53,2.53,0,1,0,2.52,2.52A2.52,2.52,0,0,0,90.1,5Z"/><path class="cls-3" d="M62.06,23h-.12a1.75,1.75,0,0,1-1.63-1.86C60.84,13,65.4,6.65,72.22,4.66A1.75,1.75,0,1,1,73.2,8c-5.37,1.57-9,6.69-9.4,13.36A1.75,1.75,0,0,1,62.06,23Z"/><path class="cls-3" d="M54.59,17l-.22,0A1.75,1.75,0,0,1,52.85,15C53.65,8.55,58.11,2.43,63.7.13a1.74,1.74,0,0,1,2.28,1,1.74,1.74,0,0,1-1,2.28C60.56,5.21,57,10.18,56.32,15.45A1.75,1.75,0,0,1,54.59,17Z"/><path class="cls-3" d="M118.13,23a1.75,1.75,0,0,1-1.74-1.63C116,14.71,112.36,9.59,107,8a1.75,1.75,0,0,1,1-3.36c6.82,2,11.39,8.31,11.91,16.49A1.75,1.75,0,0,1,118.25,23Z"/><path class="cls-3" d="M125.6,17a1.75,1.75,0,0,1-1.73-1.54c-.65-5.27-4.24-10.24-8.71-12.08A1.75,1.75,0,0,1,116.49.13c5.59,2.3,10.05,8.42,10.85,14.89A1.75,1.75,0,0,1,125.82,17Z"/><circle class="cls-4" cx="59.71" cy="68.22" r="10.42"/><ellipse class="cls-1" cx="59.65" cy="68.22" rx="4.51" ry="10.42"/><circle class="cls-4" cx="119.84" cy="68.22" r="10.42"/><ellipse class="cls-1" cx="119.79" cy="68.22" rx="4.51" ry="10.42"/><ellipse class="cls-4" cx="90.1" cy="100.5" rx="38.93" ry="21"/><path class="cls-1" d="M78.39,114.16a13.27,13.27,0,0,1-12-7.69,1.5,1.5,0,0,1,2.73-1.26A10.21,10.21,0,0,0,88.6,101V92.17a1.5,1.5,0,1,1,3,0V101A13.23,13.23,0,0,1,78.39,114.16Z"/><circle class="cls-1" cx="75.43" cy="95.64" r="1.94"/><circle class="cls-1" cx="68.28" cy="92.17" r="1.94"/><circle class="cls-1" cx="63.96" cy="98.55" r="1.94"/><path class="cls-1" d="M101.81,114.16A13.22,13.22,0,0,1,88.6,101V92.17a1.5,1.5,0,1,1,3,0V101a10.21,10.21,0,0,0,19.49,4.26,1.5,1.5,0,0,1,2.72,1.26A13.25,13.25,0,0,1,101.81,114.16Z"/><circle class="cls-1" cx="104.76" cy="95.64" r="1.94"/><circle class="cls-1" cx="111.92" cy="92.17" r="1.94"/><circle class="cls-1" cx="116.23" cy="98.55" r="1.94"/><path class="cls-1" d="M98.41,82.22a70.31,70.31,0,0,0-8.31-.56,70.34,70.34,0,0,0-8.32.56c-1.85.23-2.43,2.22-1.51,3.84a42.62,42.62,0,0,0,8,9.53,2.48,2.48,0,0,0,3.59,0,42.62,42.62,0,0,0,8-9.53C100.84,84.44,100.27,82.45,98.41,82.22Z"/><path class="cls-2" d="M72.7,32.72c-4.72,0-8.54,3.49-8.54,7.46v9.2H81.24v-9.2C81.24,36.21,77.41,32.72,72.7,32.72Z"/><path class="cls-1" d="M82.24,50.38H63.16V40.18c0-4.58,4.37-8.46,9.54-8.46s9.54,3.88,9.54,8.46Zm-17.08-2H80.24v-8.2c0-3.5-3.46-6.46-7.54-6.46s-7.54,3-7.54,6.46Z"/><path class="cls-2" d="M89.77,32.72c-4.71,0-8.53,3.49-8.53,7.46v9.2H98.31v-9.2C98.31,36.21,94.49,32.72,89.77,32.72Z"/><path class="cls-1" d="M99.31,50.38H80.24V40.18c0-4.58,4.36-8.46,9.53-8.46s9.54,3.88,9.54,8.46Zm-17.07-2H97.31v-8.2c0-3.5-3.45-6.46-7.54-6.46s-7.53,3-7.53,6.46Z"/><path class="cls-2" d="M106.85,32.72c-4.71,0-8.54,3.49-8.54,7.46v9.2h17.08v-9.2C115.39,36.21,111.57,32.72,106.85,32.72Z"/><path class="cls-1" d="M116.39,50.38H97.31V40.18c0-4.58,4.37-8.46,9.54-8.46s9.54,3.88,9.54,8.46Zm-17.08-2h15.08v-8.2c0-3.5-3.45-6.46-7.54-6.46s-7.54,3-7.54,6.46Z"/><path class="cls-5" d="M191.54,94.45s6.46.72,8.09-.33,1.69-3.29,1.69-7.18l.44-25.28,8-.5-.24,27.89c0,6.28-1.29,9-3.93,11.44s-8.14,2.29-12.88,1.86ZM208.6,50.52a4,4,0,0,1-4.18,4.11,4.14,4.14,0,1,1,4.18-4.11Z"/><path class="cls-5" d="M239.94,72.75H227.62V83.13l17.58-1-1,7.71-23.59.6-1.19-40,21.64-.59,1,7.34-14.72.2v8.23l12.08-.21Z"/><path class="cls-5" d="M254,56l8-.35V88.75h12l-.85,7.52H254Z"/><path class="cls-5" d="M277.72,42.43l8-.35-1,33.05h14l-.85,7.52H276.72Z"/><polygon class="cls-5" points="319.03 51.18 312.89 69.73 302.37 52.2 295.08 54.79 309.45 78.15 303.27 92.48 311.93 93.29 327.55 52.57 319.03 51.18"/><path class="cls-5" d="M378.93,43.54H377.7L360.14,83.11h8.45l3.69-9.66L387.14,73l4.7,9.15,8-1.51Zm-4.16,23.17,3.93-10.2,5.05,9.75Z"/><path class="cls-5" d="M408.32,59.53l-9.89-.36,2-7.51,25.73,1.22V60l-9.86-.16-1,31.42h-8Z"/><path class="cls-5" d="M268.81,114.13h2.39v8.56h4.21v2h-6.6Z"/><path class="cls-5" d="M290,119.3a5.22,5.22,0,0,1-5.58,5.57,5.1,5.1,0,0,1-5.35-5.38,5.29,5.29,0,0,1,5.53-5.54A5.09,5.09,0,0,1,290,119.3Zm-8.73.14a3.21,3.21,0,0,0,3.29,3.53c2.06,0,3.24-1.54,3.24-3.59a3.25,3.25,0,0,0-3.26-3.53C282.48,115.85,281.28,117.39,281.28,119.44Z"/><path class="cls-5" d="M294.81,124.69V114.13h1.36l6.35,6.49h.05l-.21-6.49h2.2v10.56h-1.08l-6.52-6.8h0l.09,6.79Z"/><path class="cls-5" d="M339.79,124.69V114.13h1.35l6.36,6.49h0l-.2-6.49h2.19v10.56h-1.07l-6.53-6.8h0l.09,6.79Z"/><path class="cls-5" d="M309.63,114.15s2-.1,3.23-.1a6.79,6.79,0,0,1,4.33,1.13,5.17,5.17,0,0,1,2,4.17,5,5,0,0,1-1.94,4.09,7.64,7.64,0,0,1-4.88,1.36c-1.24,0-2.71,0-2.71,0Zm2.4,8.74a4.1,4.1,0,0,0,.83,0c2.16,0,3.94-1,3.94-3.51a3.46,3.46,0,0,0-3.69-3.55,4.66,4.66,0,0,0-1.08.1Z"/><path class="cls-5" d="M334.85,119.3a5.23,5.23,0,0,1-5.59,5.57,5.1,5.1,0,0,1-5.35-5.38,5.3,5.3,0,0,1,5.54-5.54A5.1,5.1,0,0,1,334.85,119.3Zm-8.73.14A3.21,3.21,0,0,0,329.4,123c2.06,0,3.24-1.54,3.24-3.59a3.25,3.25,0,0,0-3.26-3.53C327.32,115.85,326.12,117.39,326.12,119.44Z"/><path class="cls-5" d="M434.73,88.58a5.53,5.53,0,1,1-5.51-5.41A5.42,5.42,0,0,1,434.73,88.58Zm-9.87,0a4.36,4.36,0,0,0,4.39,4.49,4.48,4.48,0,0,0,0-8.95A4.37,4.37,0,0,0,424.86,88.58Zm3.37,3h-1.06V85.89a11.15,11.15,0,0,1,2-.17,2.83,2.83,0,0,1,1.8.44,1.44,1.44,0,0,1-.54,2.56v.06a1.72,1.72,0,0,1,.95,1.37,4.26,4.26,0,0,0,.41,1.43h-1.09a3.87,3.87,0,0,1-.44-1.5c-.14-.61-.51-.89-1.33-.89h-.68Zm0-3.2h.71c.79,0,1.47-.24,1.47-.92s-.34-.92-1.36-.92a3.59,3.59,0,0,0-.82.07Z"/><path class="cls-5" d="M348.51,94.33c-6.94,0-12.42-4.93-12.42-12.82,0-8.76,6.94-13.45,12.07-13.45s7.61,2.75,7.61,2.75L355,62.06a17.76,17.76,0,0,0-6.88-1.32c-10.05,0-19.53,7.75-19.53,20.77s9.67,20.21,19.72,20.21a26,26,0,0,0,7-1.3l.77-8.74S352.41,94.33,348.51,94.33Z"/></g></g></svg>