<svg xmlns="http://www.w3.org/2000/svg" viewBox="0 0 180.19 124.15"><defs><style>.cls-1{fill:#1d1d1b;}.cls-2{fill:#f07d19;}</style></defs><g id="Layer_2" data-name="Layer 2"><g id="Layer_1-2" data-name="Layer 1"><path class="cls-1" d="M179.65,95.19l-31.21-5.9A33.29,33.29,0,0,0,149.81,80c0-15.45-6-25.71-6-37.87a54.2,54.2,0,0,1,1.73-13.33l-27,18.48H61.73l-27-18.48a54.49,54.49,0,0,1,1.72,13.33c0,12.16-6,22.42-6,37.87a33.67,33.67,0,0,0,1.37,9.29L.55,95.19A.67.67,0,0,0,.7,96.52L34,95.19a39.1,39.1,0,0,0,2,3.74L6.11,109.45a.67.67,0,0,0,.36,1.29L39.69,104c.56.67,1.14,1.34,1.75,2L14.77,121.62a.67.67,0,0,0,.59,1.2l30.53-12.63c9.8,8.16,24.39,14,44.21,14s34.4-5.8,44.2-14l30.53,12.63a.67.67,0,0,0,.6-1.2L138.75,106c.61-.66,1.19-1.33,1.75-2l33.22,6.74a.67.67,0,0,0,.36-1.29l-30-10.52a39.1,39.1,0,0,0,2-3.74l33.33,1.33A.67.67,0,0,0,179.65,95.19Z"/><path class="cls-2" d="M90.1,8C80,8,70.45,13.44,70.45,24.29V37.72h39.29V24.29C109.74,13.44,100.15,8,90.1,8Z"/><path class="cls-1" d="M110.74,38.72H69.45V24.29C69.45,12.44,80.15,7,90.1,7s20.64,5.4,20.64,17.25Zm-39.29-2h37.29V24.29C108.74,13.76,99.38,9,90.1,9S71.45,13.76,71.45,24.29Z"/><circle class="cls-2" cx="90.1" cy="4.52" r="3.52"/><path class="cls-1" d="M90.1,9a4.52,4.52,0,1,1,4.52-4.52A4.53,4.53,0,0,1,90.1,9Zm0-7a2.52,2.52,0,1,0,2.52,2.52A2.53,2.53,0,0,0,90.1,2Z"/><path class="cls-2" d="M72.7,29.7c-4.72,0-8.54,3.49-8.54,7.46v9.2H81.24v-9.2C81.24,33.19,77.41,29.7,72.7,29.7Z"/><path class="cls-1" d="M82.24,47.36H63.16V37.16c0-4.58,4.37-8.46,9.54-8.46s9.54,3.88,9.54,8.46Zm-17.08-2H80.24v-8.2c0-3.5-3.46-6.46-7.54-6.46s-7.54,3-7.54,6.46Z"/><path class="cls-2" d="M89.77,29.7c-4.71,0-8.53,3.49-8.53,7.46v9.2H98.31v-9.2C98.31,33.19,94.49,29.7,89.77,29.7Z"/><path class="cls-1" d="M99.31,47.36H80.24V37.16c0-4.58,4.36-8.46,9.53-8.46s9.54,3.88,9.54,8.46Zm-17.07-2H97.31v-8.2c0-3.5-3.45-6.46-7.54-6.46s-7.53,3-7.53,6.46Z"/><path class="cls-2" d="M106.85,29.7c-4.71,0-8.54,3.49-8.54,7.46v9.2h17.08v-9.2C115.39,33.19,111.57,29.7,106.85,29.7Z"/><path class="cls-1" d="M116.39,47.36H97.31V37.16c0-4.58,4.37-8.46,9.54-8.46s9.54,3.88,9.54,8.46Zm-17.08-2h15.08v-8.2c0-3.5-3.45-6.46-7.54-6.46s-7.54,3-7.54,6.46Z"/></g></g></svg>