<svg width="1440" height="1024" viewBox="0 0 1440 1024" fill="none" xmlns="http://www.w3.org/2000/svg">
<g clip-path="url(#clip0_63_91)">
<rect width="1440" height="1024" fill="#FDEBD1"/>
<g opacity="0.1">
<path d="M128.421 158.674C166.098 158.674 196.641 128.131 196.641 90.4547C196.641 52.7782 166.098 22.2354 128.421 22.2354C90.7448 22.2354 60.2019 52.7782 60.2019 90.4547C60.2019 128.131 90.7448 158.674 128.421 158.674Z" fill="#EA5504"/>
<path d="M1198.56 878.27C1294.71 896.915 1427.15 872.35 1466.47 804.858C1518.96 714.769 1458.37 471.468 1219.64 352.886C1219.64 352.886 978.996 -184.322 701.152 -289.243C423.307 -394.164 529.546 -6.46634 676.118 149.623C750.994 229.363 863.422 288.506 971.827 359.04C1011.14 384.594 1061.98 417.655 1058.07 459.055C1055.52 486.083 1026.86 511.983 997.702 518.181C949.073 528.522 897.67 504.217 797.968 406.222C644.236 255.073 534.053 194.178 417.396 180.214C294.774 165.53 180.752 208.819 98.6284 308.036C-33.008 467.099 -12.7069 582.205 -195.859 688.435C-279.256 736.812 -304.923 833.741 -300.052 882.864C506.748 651.066 1029.2 929.751 1402.81 1213.43C1406.53 1114.5 1285.51 955.478 1198.56 878.27ZM1298.71 642.866C1307.38 614.338 1333.54 597.843 1357.25 606.025C1380.97 614.208 1393.18 643.958 1384.56 672.485C1375.93 701.012 1349.73 717.508 1326.02 709.325C1302.31 701.142 1290.07 671.419 1298.69 642.892L1298.71 642.866Z" fill="#EA5504"/>
</g>
</g>
<defs>
<clipPath id="clip0_63_91">
<rect width="1440" height="1024" fill="white"/>
</clipPath>
</defs>
</svg>
