<svg width="449" height="57" viewBox="0 0 449 57" fill="none" xmlns="http://www.w3.org/2000/svg">
<g clip-path="url(#clip0_40_120)">
<path d="M0 0.0556641H43.0438C58.3669 0.0556641 64.4125 5.50564 64.4125 20.0875C64.4125 34.6694 59.3907 40.1192 43.0438 40.1192H16.1519V53.3945H0V0.0556641ZM40.2578 27.1653C45.8298 27.1653 48.0656 25.1321 48.0656 20.0875C48.0656 15.0429 45.9134 13.0446 40.014 13.0446H16.1519V27.2003L40.2578 27.1653Z" fill="white"/>
<path d="M91.9939 40.0423H134.174V53.3945H75.8073V0.0556641H91.9939V40.0423Z" fill="white"/>
<path d="M254.356 40.0423C251.277 40.0423 249.062 37.555 248.784 34.4527C248.398 29.3362 248.398 24.1978 248.784 19.0813C249.069 16.0001 251.284 13.4917 254.356 13.4917H292.663L292.705 0.139648H246.562C238.851 0.139648 233.328 6.42795 232.632 14.1137C232.057 22.5418 232.057 30.9994 232.632 39.4276C233.328 47.1133 238.9 53.4016 246.562 53.4016H292.663L292.621 40.0493L254.356 40.0423Z" fill="white"/>
<path d="M448.742 0.0556641H432.556C432.556 0.0556641 432.967 30.6168 432.556 34.4737C432.468 35.9274 431.853 37.2988 430.826 38.3286C429.8 39.3585 428.433 39.9754 426.984 40.0633C423.933 40.2938 419.44 40.4126 414.948 40.4126C410.456 40.4126 405.963 40.2938 402.913 40.0633C401.463 39.9754 400.096 39.3585 399.07 38.3286C398.043 37.2988 397.428 35.9274 397.341 34.4737C396.93 30.6168 397.341 0.0556641 397.341 0.0556641H381.119C381.119 0.0556641 380.548 33.0414 381.119 39.4345C381.815 47.1202 387.387 52.9334 395.049 53.4085C400.175 53.7159 407.586 53.8976 414.892 53.9046C422.199 53.9116 429.609 53.7159 434.736 53.4085C442.397 52.9474 447.969 47.1202 448.666 39.4345C449.313 33.0414 448.742 0.0556641 448.742 0.0556641Z" fill="white"/>
<path d="M226.161 44.7937L195.487 0H194.157H176.013H174.69L144.009 44.7937L155.09 57L185.088 13.2334L215.08 57L226.161 44.7937Z" fill="white"/>
<path d="M327.662 40.0423C324.577 40.0423 322.362 37.555 322.09 34.4527C321.708 29.3361 321.708 24.198 322.09 19.0813C322.376 16.0001 324.591 13.4917 327.662 13.4917H365.928L365.97 0.139648H319.827C312.123 0.139648 306.593 6.42795 305.897 14.1137C305.319 22.5417 305.319 30.9996 305.897 39.4276C306.593 47.1133 312.165 53.4016 319.827 53.4016H365.949L365.907 40.0493L327.662 40.0423Z" fill="white"/>
</g>
<defs>
<clipPath id="clip0_40_120">
<rect width="449" height="57" fill="white"/>
</clipPath>
</defs>
</svg>
