<svg xmlns="http://www.w3.org/2000/svg" viewBox="0 0 250.36 250.36"><defs><style>.cls-1{fill:#2fb44a;}.cls-2{fill:#fff;}.cls-3{fill:#f47628;}</style></defs><g id="Layer_2" data-name="Layer 2"><g id="Layer_1-2" data-name="Layer 1"><path class="cls-1" d="M250.36,200.3a50.07,50.07,0,0,1-50.08,50.06H50.07A50.07,50.07,0,0,1,0,200.3V50.08A50.08,50.08,0,0,1,50.07,0H200.28a50.07,50.07,0,0,1,50.08,50.08Z"/><path class="cls-2" d="M198.51,19.14H51.85A33.92,33.92,0,0,0,18,53.12v80.61a33.91,33.91,0,0,0,33.86,34h50.51l17.25,28.08a5.61,5.61,0,0,0,.56.79,5.77,5.77,0,0,0,10,0,4.15,4.15,0,0,0,.58-.84L148,167.71h50.52a33.92,33.92,0,0,0,33.86-34V53.12A33.92,33.92,0,0,0,198.51,19.14Z"/><path class="cls-3" d="M65.6,78.21a17.44,17.44,0,0,0-11.16,5.17V62.56H41.31v54.69H54.58V113s3.13,5.65,11,5.65c0,0,18.5-.68,18.5-20.4C84.1,98.21,83.42,78.21,65.6,78.21Zm-2.89,28.86a8.44,8.44,0,1,1,8.43-8.44A8.44,8.44,0,0,1,62.71,107.07Z"/><path class="cls-3" d="M88.31,61.34V74s6-.27,6,10.89v32.37H107V81.88S107.49,61.34,88.31,61.34Z"/><path class="cls-3" d="M137.89,78.38s-21.69,0-21.69,20.25c0,0-.7,20,21.69,20,0,0,22.18,0,22.18-20C160.07,98.63,160.79,78.38,137.89,78.38Zm0,28.69a8.44,8.44,0,1,1,8.43-8.44A8.44,8.44,0,0,1,137.89,107.07Z"/><path class="cls-3" d="M196.29,79.71v3.67a14.37,14.37,0,0,0-11-5S166.7,77.6,166.7,98.49c0,0-.2,19.47,18.06,19.47,0,0,7.45.31,11.53-5V116s.92,9.59-8.37,9.59h-3.16v11.62h5.1s19.18.21,19.18-20.5v-37Zm-7.85,27.36a8.44,8.44,0,1,1,8.43-8.44A8.43,8.43,0,0,1,188.44,107.07Z"/></g></g></svg>