<svg xmlns="http://www.w3.org/2000/svg" viewBox="0 0 283.46 230.37"><defs><style>.cls-1{fill:#3aaae1;}</style></defs><g id="Layer_2" data-name="Layer 2"><g id="Layer_1-2" data-name="Layer 1"><path class="cls-1" d="M283.46,27.27a116.11,116.11,0,0,1-33.4,9.16A58.33,58.33,0,0,0,275.63,4.25,116,116,0,0,1,238.7,18.36a58.22,58.22,0,0,0-99.1,53.05A165.13,165.13,0,0,1,19.73,10.64a58.24,58.24,0,0,0,18,77.65A57.85,57.85,0,0,1,11.39,81v.74a58.18,58.18,0,0,0,46.65,57,58.39,58.39,0,0,1-26.27,1A58.2,58.2,0,0,0,86.1,180.15a116.67,116.67,0,0,1-72.23,24.9A119.86,119.86,0,0,1,0,204.24a164.64,164.64,0,0,0,89.15,26.13c107,0,165.46-88.62,165.46-165.47q0-3.78-.16-7.53A118.1,118.1,0,0,0,283.46,27.27Z"/></g></g></svg>