<svg xmlns="http://www.w3.org/2000/svg" viewBox="0 0 90.95 63.67"><defs><style>.cls-1{fill:#ed3023;}.cls-2{fill:#fff;}</style></defs><g id="Layer_2" data-name="Layer 2"><g id="유튜브"><path class="cls-1" d="M89.05,9.94a11.4,11.4,0,0,0-8-8C73.92,0,45.48,0,45.48,0S17,0,9.94,1.9a11.41,11.41,0,0,0-8,8C0,17,0,31.83,0,31.83s0,14.8,1.9,21.89a11.41,11.41,0,0,0,8,8.05c7.09,1.9,35.54,1.9,35.54,1.9s28.44,0,35.53-1.9a11.39,11.39,0,0,0,8-8.05C91,46.63,91,31.83,91,31.83S91,17,89.05,9.94Z"/><polygon class="cls-2" points="36.38 45.48 60.01 31.83 36.38 18.19 36.38 45.48"/></g></g></svg>